<svg xmlns="http://www.w3.org/2000/svg" width="512" height="512" viewBox="0 0 512 512">
  <defs>
    <linearGradient id="background" x1="72" y1="48" x2="440" y2="472" gradientUnits="userSpaceOnUse">
      <stop stop-color="#0B716A"/>
      <stop offset="1" stop-color="#06433F"/>
    </linearGradient>
    <filter id="shadow" x="64" y="62" width="400" height="408" filterUnits="userSpaceOnUse">
      <feDropShadow dx="0" dy="18" stdDeviation="16" flood-color="#012E2B" flood-opacity=".35"/>
    </filter>
  </defs>
  <rect width="512" height="512" rx="112" fill="url(#background)"/>
  <path d="M79 136C79 104.52 104.52 79 136 79H376C407.48 79 433 104.52 433 136V376C433 407.48 407.48 433 376 433H136C104.52 433 79 407.48 79 376V136Z" fill="#F7EEDC" filter="url(#shadow)"/>
  <path d="M337 79H376C407.48 79 433 104.52 433 136V175L337 79Z" fill="#E8884D"/>
  <path d="M142 170H185V235H255V170H298V342H255V274H185V342H142V170Z" fill="#075B56"/>
  <path d="M317 218H350L379 276L408 218H441V342H402V280L380 323H377L356 280V342H317V218Z" fill="#E8884D"/>
  <rect x="131" y="372" width="250" height="12" rx="6" fill="#C9BCA5"/>
</svg>
