<svg xmlns="http://www.w3.org/2000/svg" width="1024" height="1024" viewBox="0 0 512 512" role="img" aria-labelledby="title desc">
  <title id="title">HTML课件互动编辑系统图标</title>
  <desc id="desc">蓝色圆角背景中的课件画布、HTML尖括号与三个互动节点</desc>
  <defs>
    <linearGradient id="brand-bg" x1="78" y1="52" x2="438" y2="464" gradientUnits="userSpaceOnUse">
      <stop stop-color="#176BFF"/>
      <stop offset="1" stop-color="#0B4FC4"/>
    </linearGradient>
    <filter id="canvas-shadow" x="66" y="86" width="380" height="366" filterUnits="userSpaceOnUse">
      <feDropShadow dx="0" dy="18" stdDeviation="15" flood-color="#062D76" flood-opacity="0.28"/>
    </filter>
    <linearGradient id="interaction-line" x1="168" y1="274" x2="344" y2="274" gradientUnits="userSpaceOnUse">
      <stop stop-color="#19C6B2"/>
      <stop offset="1" stop-color="#0FA897"/>
    </linearGradient>
  </defs>
  <rect width="512" height="512" rx="116" fill="url(#brand-bg)"/>
  <path d="M74 154C74 109.817 109.817 74 154 74H358C402.183 74 438 109.817 438 154V358C438 402.183 402.183 438 358 438H154C109.817 438 74 402.183 74 358V154Z" fill="none" stroke="#FFFFFF" stroke-opacity="0.14" stroke-width="4"/>
  <rect x="92" y="106" width="328" height="300" rx="52" fill="#F7FBFF" filter="url(#canvas-shadow)"/>
  <rect x="116" y="130" width="280" height="252" rx="34" fill="#FFFFFF" stroke="#DDEBFF" stroke-width="4"/>
  <circle cx="144" cy="154" r="7" fill="#B9D4FF"/>
  <circle cx="168" cy="154" r="7" fill="#B9D4FF"/>
  <path d="M213 194L165 256L213 318" fill="none" stroke="#176BFF" stroke-width="22" stroke-linecap="round" stroke-linejoin="round"/>
  <path d="M299 194L347 256L299 318" fill="none" stroke="#176BFF" stroke-width="22" stroke-linecap="round" stroke-linejoin="round"/>
  <path d="M174 282C208 282 218 230 256 230C294 230 304 282 338 282" fill="none" stroke="url(#interaction-line)" stroke-width="13" stroke-linecap="round"/>
  <circle cx="174" cy="282" r="18" fill="#13B8A6" stroke="#FFFFFF" stroke-width="8"/>
  <circle cx="338" cy="282" r="18" fill="#13B8A6" stroke="#FFFFFF" stroke-width="8"/>
  <circle cx="256" cy="230" r="30" fill="#13B8A6" fill-opacity="0.18"/>
  <circle cx="256" cy="230" r="18" fill="#13B8A6" stroke="#FFFFFF" stroke-width="8"/>
  <circle cx="256" cy="230" r="5" fill="#FFFFFF"/>
</svg>
